<svg width="128" height="128" viewBox="0 0 128 128" fill="none" xmlns="http://www.w3.org/2000/svg">
<rect width="128" height="128" fill="#002EEF"/>
<path d="M103.187 83.3263C98.7018 92.2653 91.2483 99.3558 82.1103 103.376C72.9723 107.397 62.7221 108.096 53.1255 105.353C43.5289 102.609 35.187 96.5959 29.5366 88.348C23.8862 80.1001 21.2813 70.1344 22.1707 60.1676C23.0601 50.2008 27.388 40.8572 34.4089 33.7463C41.4298 26.6354 50.7041 22.2026 60.6339 21.2115C70.5637 20.2204 80.5274 22.7331 88.8083 28.3167C97.0892 33.9003 103.169 42.2052 106 51.8006C101.16 53.4856 95.7013 56.8284 90.6115 61.5084C79.8682 71.3955 74.9139 83.522 79.5457 88.5688C83.5839 92.9851 93.5737 90.5718 103.187 83.3263Z" fill="white"/>
</svg>
